<?xml version="1.0" encoding="utf-8" standalone="no"?>
<!DOCTYPE svg PUBLIC "-//W3C//DTD SVG 1.1//EN"
  "http://www.w3.org/Graphics/SVG/1.1/DTD/svg11.dtd">
<svg xmlns:xlink="http://www.w3.org/1999/xlink" width="921.6pt" height="383.76pt" viewBox="0 0 921.6 383.76" xmlns="http://www.w3.org/2000/svg" version="1.1">
 <metadata>
  <rdf:RDF xmlns:dc="http://purl.org/dc/elements/1.1/" xmlns:cc="http://creativecommons.org/ns#" xmlns:rdf="http://www.w3.org/1999/02/22-rdf-syntax-ns#">
   <cc:Work>
    <dc:type rdf:resource="http://purl.org/dc/dcmitype/StillImage"/>
    <dc:date>2026-09-04T06:44:05.942865</dc:date>
    <dc:format>image/svg+xml</dc:format>
    <dc:creator>
     <cc:Agent>
      <dc:title>Matplotlib v3.9.4, https://matplotlib.org/</dc:title>
     </cc:Agent>
    </dc:creator>
   </cc:Work>
  </rdf:RDF>
 </metadata>
 <defs>
  <style type="text/css">*{stroke-linejoin: round; stroke-linecap: butt}</style>
 </defs>
 <g id="figure_1">
  <g id="patch_1">
   <path d="M 0 383.76 
L 921.6 383.76 
L 921.6 0 
L 0 0 
z
" style="fill: #ffffff"/>
  </g>
  <g id="axes_1">
   <g id="patch_2">
    <path d="M 82.944 314.6832 
L 893.952 314.6832 
L 893.952 53.7264 
L 82.944 53.7264 
z
" style="fill: #ffffff"/>
   </g>
   <g id="matplotlib.axis_1">
    <g id="xtick_1">
     <g id="line2d_1">
      <defs>
       <path id="m4662067669" d="M 0 0 
L 0 3.5 
" style="stroke: #171717; stroke-width: 0.8"/>
      </defs>
      <g>
       <use xlink:href="#m4662067669" x="119.808" y="314.6832" style="fill: #171717; stroke: #171717; stroke-width: 0.8"/>
      </g>
     </g>
     <g id="text_1">
      <!-- Intended -->
      <g style="fill: #171717" transform="translate(99.067844 330.020856) scale(0.11 -0.11)">
       <defs>
        <path id="AppleSDGothicNeo-Regular-49" d="M 576 269 
L 1082 269 
L 1082 4563 
L 576 4563 
L 576 269 
z
" transform="scale(0.015625)"/>
        <path id="AppleSDGothicNeo-Regular-6e" d="M 467 269 
L 954 269 
L 954 2848 
C 1216 2970 1549 3078 1850 3078 
C 2355 3078 2490 2918 2490 2534 
L 2490 269 
L 2976 269 
L 2976 2637 
C 2976 3251 2675 3501 2054 3501 
C 1664 3501 1254 3360 960 3168 
L 934 3168 
L 934 3443 
L 467 3443 
L 467 269 
z
" transform="scale(0.015625)"/>
        <path id="AppleSDGothicNeo-Regular-74" d="M 1472 230 
C 1747 230 1882 301 2010 358 
L 2010 691 
C 1882 653 1734 634 1600 634 
C 1235 634 1133 755 1133 1062 
L 1133 3034 
L 1946 3034 
L 1946 3437 
L 1133 3437 
L 1133 4192 
L 646 4192 
L 646 3437 
L 192 3437 
L 192 3034 
L 646 3034 
L 646 986 
C 646 448 973 230 1472 230 
z
" transform="scale(0.015625)"/>
        <path id="AppleSDGothicNeo-Regular-65" d="M 1773 211 
C 2285 211 2650 371 2842 506 
L 2842 870 
C 2554 736 2272 634 1850 634 
C 1171 634 794 941 768 1734 
L 2931 1734 
L 2931 2010 
C 2931 2995 2522 3501 1651 3501 
C 922 3501 269 3008 269 1901 
L 269 1811 
C 269 819 774 211 1773 211 
z
M 1638 3104 
C 2157 3104 2419 2816 2419 2125 
L 768 2125 
C 819 2874 1242 3104 1638 3104 
z
" transform="scale(0.015625)"/>
        <path id="AppleSDGothicNeo-Regular-64" d="M 1600 211 
C 2029 211 2336 346 2528 531 
L 2554 531 
L 2611 269 
L 3021 269 
L 3021 4851 
L 2528 4851 
L 2528 3290 
C 2355 3392 2086 3501 1696 3501 
C 877 3501 282 3002 282 1850 
L 282 1766 
C 282 595 966 211 1600 211 
z
M 1747 614 
C 1178 614 794 896 794 1786 
L 794 1914 
C 794 2771 1158 3085 1760 3085 
C 2086 3085 2381 2995 2528 2880 
L 2528 883 
C 2368 755 2118 614 1747 614 
z
" transform="scale(0.015625)"/>
       </defs>
       <use xlink:href="#AppleSDGothicNeo-Regular-49"/>
       <use xlink:href="#AppleSDGothicNeo-Regular-6e" x="25.899994"/>
       <use xlink:href="#AppleSDGothicNeo-Regular-74" x="79.499985"/>
       <use xlink:href="#AppleSDGothicNeo-Regular-65" x="114.499969"/>
       <use xlink:href="#AppleSDGothicNeo-Regular-6e" x="164.499954"/>
       <use xlink:href="#AppleSDGothicNeo-Regular-64" x="218.099945"/>
       <use xlink:href="#AppleSDGothicNeo-Regular-65" x="272.59993"/>
       <use xlink:href="#AppleSDGothicNeo-Regular-64" x="322.599915"/>
      </g>
     </g>
    </g>
    <g id="xtick_2">
     <g id="line2d_2">
      <g>
       <use xlink:href="#m4662067669" x="365.568" y="314.6832" style="fill: #171717; stroke: #171717; stroke-width: 0.8"/>
      </g>
     </g>
     <g id="text_2">
      <!-- Executed -->
      <g style="fill: #171717" transform="translate(344.106828 330.020856) scale(0.11 -0.11)">
       <defs>
        <path id="AppleSDGothicNeo-Regular-45" d="M 557 269 
L 3123 269 
L 3123 698 
L 1062 698 
L 1062 2266 
L 2637 2266 
L 2637 2694 
L 1062 2694 
L 1062 4134 
L 3104 4134 
L 3104 4563 
L 557 4563 
L 557 269 
z
" transform="scale(0.015625)"/>
        <path id="AppleSDGothicNeo-Regular-78" d="M 147 269 
L 685 269 
L 1510 1536 
L 2317 269 
L 2899 269 
L 1837 1882 
L 2822 3443 
L 2291 3443 
L 1568 2234 
L 774 3443 
L 198 3443 
L 1229 1882 
L 147 269 
z
" transform="scale(0.015625)"/>
        <path id="AppleSDGothicNeo-Regular-63" d="M 1734 211 
C 2176 211 2458 339 2662 461 
L 2662 858 
C 2502 768 2221 634 1792 634 
C 1114 634 774 998 774 1811 
L 774 1965 
C 774 2694 1152 3085 1728 3085 
C 2144 3085 2349 3008 2630 2880 
L 2630 3290 
C 2419 3424 2170 3501 1754 3501 
C 934 3501 269 3014 269 1888 
L 269 1792 
C 269 749 826 211 1734 211 
z
" transform="scale(0.015625)"/>
        <path id="AppleSDGothicNeo-Regular-75" d="M 1421 211 
C 1805 211 2144 358 2432 557 
L 2458 557 
L 2502 269 
L 2925 269 
L 2925 3443 
L 2438 3443 
L 2438 883 
C 2176 755 1894 634 1555 634 
C 1088 634 941 800 941 1210 
L 941 3443 
L 448 3443 
L 448 1139 
C 448 525 800 211 1421 211 
z
" transform="scale(0.015625)"/>
       </defs>
       <use xlink:href="#AppleSDGothicNeo-Regular-45"/>
       <use xlink:href="#AppleSDGothicNeo-Regular-78" x="54.999985"/>
       <use xlink:href="#AppleSDGothicNeo-Regular-65" x="102.699982"/>
       <use xlink:href="#AppleSDGothicNeo-Regular-63" x="152.699966"/>
       <use xlink:href="#AppleSDGothicNeo-Regular-75" x="197.699951"/>
       <use xlink:href="#AppleSDGothicNeo-Regular-74" x="250.699936"/>
       <use xlink:href="#AppleSDGothicNeo-Regular-65" x="285.699921"/>
       <use xlink:href="#AppleSDGothicNeo-Regular-64" x="335.699905"/>
      </g>
     </g>
    </g>
    <g id="xtick_3">
     <g id="line2d_3">
      <g>
       <use xlink:href="#m4662067669" x="611.328" y="314.6832" style="fill: #171717; stroke: #171717; stroke-width: 0.8"/>
      </g>
     </g>
     <g id="text_3">
      <!-- Valid -->
      <g style="fill: #171717" transform="translate(599.936984 330.020856) scale(0.11 -0.11)">
       <defs>
        <path id="AppleSDGothicNeo-Regular-56" d="M 1683 269 
L 2157 269 
L 3712 4563 
L 3232 4563 
L 1952 954 
L 1939 954 
L 653 4563 
L 128 4563 
L 1683 269 
z
" transform="scale(0.015625)"/>
        <path id="AppleSDGothicNeo-Regular-61" d="M 1242 211 
C 1670 211 1939 365 2086 544 
L 2118 544 
L 2170 269 
L 2566 269 
L 2566 2566 
C 2566 3213 2176 3501 1478 3501 
C 1114 3501 806 3443 531 3328 
L 531 2976 
C 730 3034 979 3078 1286 3078 
C 1856 3078 2074 2950 2074 2458 
L 2074 2125 
L 1216 2022 
C 608 1952 250 1658 250 1101 
C 250 506 666 211 1242 211 
z
M 1363 595 
C 998 595 762 768 762 1114 
C 762 1478 954 1638 1344 1677 
L 2074 1760 
L 2074 826 
C 1939 691 1658 595 1363 595 
z
" transform="scale(0.015625)"/>
        <path id="AppleSDGothicNeo-Regular-6c" d="M 480 269 
L 973 269 
L 973 4851 
L 480 4851 
L 480 269 
z
" transform="scale(0.015625)"/>
        <path id="AppleSDGothicNeo-Regular-69" d="M 486 269 
L 973 269 
L 973 3437 
L 486 3437 
L 486 269 
z
M 480 4077 
L 979 4077 
L 979 4589 
L 480 4589 
L 480 4077 
z
" transform="scale(0.015625)"/>
       </defs>
       <use xlink:href="#AppleSDGothicNeo-Regular-56"/>
       <use xlink:href="#AppleSDGothicNeo-Regular-61" x="59.999985"/>
       <use xlink:href="#AppleSDGothicNeo-Regular-6c" x="107.199982"/>
       <use xlink:href="#AppleSDGothicNeo-Regular-69" x="129.899979"/>
       <use xlink:href="#AppleSDGothicNeo-Regular-64" x="152.599976"/>
      </g>
     </g>
    </g>
    <g id="xtick_4">
     <g id="line2d_4">
      <g>
       <use xlink:href="#m4662067669" x="857.088" y="314.6832" style="fill: #171717; stroke: #171717; stroke-width: 0.8"/>
      </g>
     </g>
     <g id="text_4">
      <!-- Passed -->
      <g style="fill: #171717" transform="translate(841.138 330.020856) scale(0.11 -0.11)">
       <defs>
        <path id="AppleSDGothicNeo-Regular-50" d="M 550 269 
L 1062 269 
L 1062 1990 
L 1939 1990 
C 2758 1990 3309 2451 3309 3296 
C 3309 4102 2842 4563 1875 4563 
L 550 4563 
L 550 269 
z
M 1062 2413 
L 1062 4134 
L 1824 4134 
C 2522 4134 2765 3872 2765 3264 
C 2765 2688 2502 2413 1837 2413 
L 1062 2413 
z
" transform="scale(0.015625)"/>
        <path id="AppleSDGothicNeo-Regular-73" d="M 1274 218 
C 1971 218 2394 550 2394 1152 
C 2394 1702 2144 1907 1536 2067 
L 1216 2157 
C 877 2253 742 2368 742 2643 
C 742 2938 954 3085 1382 3085 
C 1734 3085 2054 3002 2221 2918 
L 2221 3315 
C 2054 3405 1779 3501 1357 3501 
C 627 3501 275 3136 275 2598 
C 275 2061 589 1850 1050 1722 
L 1363 1638 
C 1766 1523 1914 1395 1914 1101 
C 1914 813 1709 634 1203 634 
C 755 634 525 730 250 832 
L 250 442 
C 512 294 858 218 1274 218 
z
" transform="scale(0.015625)"/>
       </defs>
       <use xlink:href="#AppleSDGothicNeo-Regular-50"/>
       <use xlink:href="#AppleSDGothicNeo-Regular-61" x="55.299988"/>
       <use xlink:href="#AppleSDGothicNeo-Regular-73" x="102.499985"/>
       <use xlink:href="#AppleSDGothicNeo-Regular-73" x="143.999969"/>
       <use xlink:href="#AppleSDGothicNeo-Regular-65" x="185.499954"/>
       <use xlink:href="#AppleSDGothicNeo-Regular-64" x="235.499939"/>
      </g>
     </g>
    </g>
   </g>
   <g id="matplotlib.axis_2">
    <g id="ytick_1">
     <g id="line2d_5">
      <path d="M 82.944 314.6832 
L 893.952 314.6832 
" clip-path="url(#p87d51688e2)" style="fill: none; stroke: #ececea; stroke-linecap: square"/>
     </g>
     <g id="line2d_6"/>
     <g id="text_5">
      <!-- 0 -->
      <g style="fill: #171717" transform="translate(72.514 318.852028) scale(0.11 -0.11)">
       <defs>
        <path id="AppleSDGothicNeo-Regular-30" d="M 2022 192 
C 2893 192 3558 787 3558 2240 
L 3558 2630 
C 3558 4122 2867 4634 2029 4634 
C 1184 4634 448 4122 448 2605 
L 448 2246 
C 448 794 1139 192 2022 192 
z
M 2022 614 
C 1350 614 992 1126 992 2195 
L 992 2669 
C 992 3744 1357 4211 2029 4211 
C 2688 4211 3040 3718 3040 2637 
L 3040 2163 
C 3040 1062 2682 614 2022 614 
z
" transform="scale(0.015625)"/>
       </defs>
       <use xlink:href="#AppleSDGothicNeo-Regular-30"/>
      </g>
     </g>
    </g>
    <g id="ytick_2">
     <g id="line2d_7">
      <path d="M 82.944 261.42671 
L 893.952 261.42671 
" clip-path="url(#p87d51688e2)" style="fill: none; stroke: #ececea; stroke-linecap: square"/>
     </g>
     <g id="line2d_8"/>
     <g id="text_6">
      <!-- 200 -->
      <g style="fill: #171717" transform="translate(59.721344 265.595538) scale(0.11 -0.11)">
       <defs>
        <path id="AppleSDGothicNeo-Regular-32" d="M 397 269 
L 3066 269 
L 3066 704 
L 1107 704 
L 1779 1382 
C 2522 2138 2970 2650 2970 3392 
C 2970 4160 2502 4640 1638 4640 
C 1152 4640 717 4422 448 4250 
L 595 3846 
C 845 4019 1190 4198 1555 4198 
C 2163 4198 2438 3917 2438 3347 
C 2438 2733 2029 2266 1421 1632 
L 397 570 
L 397 269 
z
" transform="scale(0.015625)"/>
       </defs>
       <use xlink:href="#AppleSDGothicNeo-Regular-32"/>
       <use xlink:href="#AppleSDGothicNeo-Regular-30" x="53.299988"/>
       <use xlink:href="#AppleSDGothicNeo-Regular-30" x="116.299973"/>
      </g>
     </g>
    </g>
    <g id="ytick_3">
     <g id="line2d_9">
      <path d="M 82.944 208.17022 
L 893.952 208.17022 
" clip-path="url(#p87d51688e2)" style="fill: none; stroke: #ececea; stroke-linecap: square"/>
     </g>
     <g id="line2d_10"/>
     <g id="text_7">
      <!-- 400 -->
      <g style="fill: #171717" transform="translate(59.479 212.339049) scale(0.11 -0.11)">
       <defs>
        <path id="AppleSDGothicNeo-Regular-34" d="M 2214 166 
L 2682 166 
L 2682 1171 
L 3398 1171 
L 3398 1587 
L 2682 1587 
L 2682 4621 
L 2285 4621 
L 186 1555 
L 186 1171 
L 2214 1171 
L 2214 166 
z
M 730 1587 
L 2214 3814 
L 2214 1587 
L 730 1587 
z
" transform="scale(0.015625)"/>
       </defs>
       <use xlink:href="#AppleSDGothicNeo-Regular-34"/>
       <use xlink:href="#AppleSDGothicNeo-Regular-30" x="55.499985"/>
       <use xlink:href="#AppleSDGothicNeo-Regular-30" x="118.499969"/>
      </g>
     </g>
    </g>
    <g id="ytick_4">
     <g id="line2d_11">
      <path d="M 82.944 154.913731 
L 893.952 154.913731 
" clip-path="url(#p87d51688e2)" style="fill: none; stroke: #ececea; stroke-linecap: square"/>
     </g>
     <g id="line2d_12"/>
     <g id="text_8">
      <!-- 600 -->
      <g style="fill: #171717" transform="translate(59.489313 159.082559) scale(0.11 -0.11)">
       <defs>
        <path id="AppleSDGothicNeo-Regular-36" d="M 1837 192 
C 2707 192 3232 826 3232 1645 
C 3232 2464 2656 2957 1939 2957 
C 1459 2957 1107 2733 877 2496 
C 941 3834 1350 4205 2080 4205 
C 2355 4205 2733 4096 2886 4006 
L 3034 4378 
C 2854 4486 2458 4634 2029 4634 
C 1037 4634 365 3968 365 2451 
L 365 2118 
C 365 896 877 192 1837 192 
z
M 1830 614 
C 1146 614 877 1139 877 1939 
L 877 1984 
C 1056 2240 1427 2528 1837 2528 
C 2355 2528 2720 2266 2720 1594 
C 2720 979 2387 614 1830 614 
z
" transform="scale(0.015625)"/>
       </defs>
       <use xlink:href="#AppleSDGothicNeo-Regular-36"/>
       <use xlink:href="#AppleSDGothicNeo-Regular-30" x="55.399994"/>
       <use xlink:href="#AppleSDGothicNeo-Regular-30" x="118.399979"/>
      </g>
     </g>
    </g>
    <g id="ytick_5">
     <g id="line2d_13">
      <path d="M 82.944 101.657241 
L 893.952 101.657241 
" clip-path="url(#p87d51688e2)" style="fill: none; stroke: #ececea; stroke-linecap: square"/>
     </g>
     <g id="line2d_14"/>
     <g id="text_9">
      <!-- 800 -->
      <g style="fill: #171717" transform="translate(59.259 105.826069) scale(0.11 -0.11)">
       <defs>
        <path id="AppleSDGothicNeo-Regular-38" d="M 1837 186 
C 2765 186 3341 723 3341 1408 
C 3341 2054 2829 2362 2298 2534 
C 2739 2765 3168 3066 3168 3584 
C 3168 4250 2624 4640 1818 4640 
C 992 4640 461 4179 461 3558 
C 461 3008 838 2682 1299 2502 
C 826 2317 339 1926 339 1363 
C 339 659 922 186 1837 186 
z
M 1830 608 
C 1261 608 851 909 851 1382 
C 851 1856 1280 2163 1702 2310 
C 2445 2074 2797 1882 2797 1357 
C 2797 915 2381 608 1830 608 
z
M 1920 2720 
C 1350 2867 1005 3130 1005 3571 
C 1005 3981 1331 4218 1824 4218 
C 2355 4218 2637 3942 2637 3565 
C 2637 3155 2323 2899 1920 2720 
z
" transform="scale(0.015625)"/>
       </defs>
       <use xlink:href="#AppleSDGothicNeo-Regular-38"/>
       <use xlink:href="#AppleSDGothicNeo-Regular-30" x="57.499985"/>
       <use xlink:href="#AppleSDGothicNeo-Regular-30" x="120.499969"/>
      </g>
     </g>
    </g>
    <g id="text_10">
     <!-- Cells -->
     <g style="fill: #171717" transform="translate(53.881813 196.808706) rotate(-90) scale(0.13 -0.13)">
      <defs>
       <path id="AppleSDGothicNeo-Regular-43" d="M 2182 198 
C 2688 198 3078 314 3366 480 
L 3366 909 
C 3098 774 2778 627 2246 627 
C 1261 627 851 1267 851 2368 
L 851 2579 
C 851 3718 1427 4205 2240 4205 
C 2662 4205 2982 4109 3322 3974 
L 3322 4397 
C 3059 4538 2726 4634 2266 4634 
C 1171 4634 314 4032 314 2496 
L 314 2368 
C 314 915 1024 198 2182 198 
z
" transform="scale(0.015625)"/>
      </defs>
      <use xlink:href="#AppleSDGothicNeo-Regular-43"/>
      <use xlink:href="#AppleSDGothicNeo-Regular-65" x="56.999985"/>
      <use xlink:href="#AppleSDGothicNeo-Regular-6c" x="106.999969"/>
      <use xlink:href="#AppleSDGothicNeo-Regular-6c" x="129.699966"/>
      <use xlink:href="#AppleSDGothicNeo-Regular-73" x="152.399963"/>
     </g>
    </g>
   </g>
   <g id="line2d_15">
    <path d="M 119.808 77.69182 
L 365.568 83.017469 
L 611.328 84.615164 
L 857.088 134.942547 
" clip-path="url(#p87d51688e2)" style="fill: none; stroke: #171717; stroke-width: 2.2; stroke-linecap: square"/>
   </g>
   <g id="patch_3">
    <path d="M 82.944 314.6832 
L 893.952 314.6832 
" style="fill: none; stroke: #171717; stroke-width: 0.8; stroke-linejoin: miter; stroke-linecap: square"/>
   </g>
   <g id="PathCollection_1">
    <defs>
     <path id="m72f6596ba3" d="M 0 5.361903 
C 1.421993 5.361903 2.785937 4.796939 3.791438 3.791438 
C 4.796939 2.785937 5.361903 1.421993 5.361903 0 
C 5.361903 -1.421993 4.796939 -2.785937 3.791438 -3.791438 
C 2.785937 -4.796939 1.421993 -5.361903 0 -5.361903 
C -1.421993 -5.361903 -2.785937 -4.796939 -3.791438 -3.791438 
C -4.796939 -2.785937 -5.361903 -1.421993 -5.361903 0 
C -5.361903 1.421993 -4.796939 2.785937 -3.791438 3.791438 
C -2.785937 4.796939 -1.421993 5.361903 0 5.361903 
z
" style="stroke: #171717; stroke-width: 2.3"/>
    </defs>
    <g clip-path="url(#p87d51688e2)">
     <use xlink:href="#m72f6596ba3" x="119.808" y="77.69182" style="fill: #ffffff; stroke: #171717; stroke-width: 2.3"/>
     <use xlink:href="#m72f6596ba3" x="365.568" y="83.017469" style="fill: #ffffff; stroke: #171717; stroke-width: 2.3"/>
     <use xlink:href="#m72f6596ba3" x="611.328" y="84.615164" style="fill: #ffffff; stroke: #171717; stroke-width: 2.3"/>
     <use xlink:href="#m72f6596ba3" x="857.088" y="134.942547" style="fill: #ffffff; stroke: #171717; stroke-width: 2.3"/>
    </g>
   </g>
   <g id="text_11">
    <!-- 890 -->
    <g style="fill: #171717" transform="translate(103.976438 69.437064) scale(0.18 -0.18)">
     <defs>
      <path id="AppleSDGothicNeo-Regular-39" d="M 1696 4634 
C 826 4634 307 3949 307 3142 
C 307 2323 896 1798 1619 1798 
C 2093 1798 2445 2010 2675 2272 
C 2630 1069 2227 621 1523 621 
C 1178 621 832 723 646 832 
L 506 461 
C 704 326 1107 192 1549 192 
C 2586 192 3187 979 3187 2477 
L 3187 2758 
C 3187 3974 2656 4634 1696 4634 
z
M 1702 4211 
C 2387 4211 2675 3686 2675 2886 
L 2675 2765 
C 2496 2515 2131 2227 1722 2227 
C 1203 2227 813 2515 813 3187 
C 813 3782 1146 4211 1702 4211 
z
" transform="scale(0.015625)"/>
     </defs>
     <use xlink:href="#AppleSDGothicNeo-Regular-38"/>
     <use xlink:href="#AppleSDGothicNeo-Regular-39" x="57.499985"/>
     <use xlink:href="#AppleSDGothicNeo-Regular-30" x="112.899979"/>
    </g>
   </g>
   <g id="text_12">
    <!-- 870 -->
    <g style="fill: #171717" transform="translate(350.313 74.762713) scale(0.18 -0.18)">
     <defs>
      <path id="AppleSDGothicNeo-Regular-37" d="M 710 243 
L 1274 243 
L 2957 4218 
L 2957 4544 
L 218 4544 
L 218 4115 
L 2400 4115 
L 710 243 
z
" transform="scale(0.015625)"/>
     </defs>
     <use xlink:href="#AppleSDGothicNeo-Regular-38"/>
     <use xlink:href="#AppleSDGothicNeo-Regular-37" x="57.499985"/>
     <use xlink:href="#AppleSDGothicNeo-Regular-30" x="106.499969"/>
    </g>
   </g>
   <g id="text_13">
    <!-- 864 -->
    <g style="fill: #171717" transform="translate(596.171438 76.360408) scale(0.18 -0.18)">
     <use xlink:href="#AppleSDGothicNeo-Regular-38"/>
     <use xlink:href="#AppleSDGothicNeo-Regular-36" x="57.499985"/>
     <use xlink:href="#AppleSDGothicNeo-Regular-34" x="112.899979"/>
    </g>
   </g>
   <g id="text_14">
    <!-- 675 -->
    <g style="fill: #171717" transform="translate(843.199875 126.687791) scale(0.18 -0.18)">
     <defs>
      <path id="AppleSDGothicNeo-Regular-35" d="M 1395 192 
C 2342 192 2906 838 2906 1606 
C 2906 2509 2374 2918 1510 2918 
C 1331 2918 1069 2874 896 2829 
L 986 4134 
L 2752 4134 
L 2752 4570 
L 576 4570 
L 422 2317 
C 621 2406 1024 2528 1318 2528 
C 1990 2528 2374 2266 2374 1613 
C 2374 1005 1978 621 1299 621 
C 947 621 525 768 288 928 
L 192 518 
C 448 333 896 192 1395 192 
z
" transform="scale(0.015625)"/>
     </defs>
     <use xlink:href="#AppleSDGothicNeo-Regular-36"/>
     <use xlink:href="#AppleSDGothicNeo-Regular-37" x="55.399994"/>
     <use xlink:href="#AppleSDGothicNeo-Regular-35" x="104.399979"/>
    </g>
   </g>
   <g id="patch_4">
    <path d="M 242.688 109.252221 
Q 242.688 95.803489 242.688 82.354758 
" style="fill: none; stroke: #a84a3a; stroke-width: 1.3; stroke-linecap: round"/>
   </g>
   <g id="text_15">
    <!-- -20  prospective symmetric exclusions -->
    <g style="fill: #a84a3a" transform="translate(145.260188 122.354645) scale(0.12 -0.12)">
     <defs>
      <path id="AppleSDGothicNeo-Regular-2d" d="M 333 2138 
L 2445 2138 
L 2445 2560 
L 333 2560 
L 333 2138 
z
" transform="scale(0.015625)"/>
      <path id="AppleSDGothicNeo-Regular-20" transform="scale(0.015625)"/>
      <path id="AppleSDGothicNeo-Regular-70" d="M 467 -678 
L 960 -678 
L 960 422 
C 1139 320 1408 211 1773 211 
C 2650 211 3206 698 3206 1856 
L 3206 1939 
C 3206 3117 2605 3501 1907 3501 
C 1498 3501 1165 3360 966 3181 
L 941 3181 
L 941 3437 
L 467 3437 
L 467 -678 
z
M 1728 614 
C 1395 614 1107 717 960 838 
L 960 2854 
C 1107 2957 1408 3085 1779 3085 
C 2362 3085 2694 2810 2694 1914 
L 2694 1786 
C 2694 934 2330 614 1728 614 
z
" transform="scale(0.015625)"/>
      <path id="AppleSDGothicNeo-Regular-72" d="M 467 269 
L 960 269 
L 960 2765 
C 1184 2925 1491 3040 1811 3040 
C 1862 3040 1958 3034 2042 3021 
L 2042 3462 
C 2010 3469 1920 3475 1850 3475 
C 1491 3475 1146 3290 966 3085 
L 934 3085 
L 934 3443 
L 467 3443 
L 467 269 
z
" transform="scale(0.015625)"/>
      <path id="AppleSDGothicNeo-Regular-6f" d="M 1702 211 
C 2560 211 3149 813 3149 1824 
L 3149 1914 
C 3149 2918 2605 3501 1709 3501 
C 851 3501 269 2899 269 1894 
L 269 1798 
C 269 787 806 211 1702 211 
z
M 1715 614 
C 1184 614 768 902 768 1786 
L 768 1946 
C 768 2688 1126 3098 1702 3098 
C 2221 3098 2650 2810 2650 1926 
L 2650 1766 
C 2650 1018 2291 614 1715 614 
z
" transform="scale(0.015625)"/>
      <path id="AppleSDGothicNeo-Regular-76" d="M 1331 269 
L 1818 269 
L 2995 3443 
L 2515 3443 
L 1600 890 
L 1574 890 
L 685 3443 
L 154 3443 
L 1331 269 
z
" transform="scale(0.015625)"/>
      <path id="AppleSDGothicNeo-Regular-79" d="M 710 -685 
C 1235 -685 1498 -493 1709 70 
L 2957 3443 
L 2464 3443 
L 1606 1030 
L 1594 1030 
L 659 3443 
L 134 3443 
L 1350 384 
L 1254 122 
C 1120 -224 928 -275 621 -275 
C 506 -275 390 -243 314 -230 
L 314 -595 
C 403 -640 563 -685 710 -685 
z
" transform="scale(0.015625)"/>
      <path id="AppleSDGothicNeo-Regular-6d" d="M 467 269 
L 954 269 
L 954 2848 
C 1210 2970 1491 3078 1760 3078 
C 2182 3078 2336 2918 2336 2534 
L 2336 269 
L 2822 269 
L 2822 2637 
C 2822 2714 2816 2771 2803 2848 
C 3104 2982 3373 3078 3622 3078 
C 4051 3078 4205 2918 4205 2534 
L 4205 269 
L 4685 269 
L 4685 2637 
C 4685 3251 4365 3501 3814 3501 
C 3456 3501 3085 3373 2739 3149 
L 2714 3149 
C 2566 3386 2310 3501 1952 3501 
C 1594 3501 1254 3354 960 3168 
L 934 3168 
L 934 3443 
L 467 3443 
L 467 269 
z
" transform="scale(0.015625)"/>
     </defs>
     <use xlink:href="#AppleSDGothicNeo-Regular-2d"/>
     <use xlink:href="#AppleSDGothicNeo-Regular-32" x="43.199997"/>
     <use xlink:href="#AppleSDGothicNeo-Regular-30" x="96.499985"/>
     <use xlink:href="#AppleSDGothicNeo-Regular-20" x="159.499969"/>
     <use xlink:href="#AppleSDGothicNeo-Regular-20" x="185.799957"/>
     <use xlink:href="#AppleSDGothicNeo-Regular-70" x="212.099945"/>
     <use xlink:href="#AppleSDGothicNeo-Regular-72" x="266.59993"/>
     <use xlink:href="#AppleSDGothicNeo-Regular-6f" x="301.199921"/>
     <use xlink:href="#AppleSDGothicNeo-Regular-73" x="354.599915"/>
     <use xlink:href="#AppleSDGothicNeo-Regular-70" x="396.099899"/>
     <use xlink:href="#AppleSDGothicNeo-Regular-65" x="450.599884"/>
     <use xlink:href="#AppleSDGothicNeo-Regular-63" x="500.599869"/>
     <use xlink:href="#AppleSDGothicNeo-Regular-74" x="545.599854"/>
     <use xlink:href="#AppleSDGothicNeo-Regular-69" x="580.599838"/>
     <use xlink:href="#AppleSDGothicNeo-Regular-76" x="603.299835"/>
     <use xlink:href="#AppleSDGothicNeo-Regular-65" x="652.499832"/>
     <use xlink:href="#AppleSDGothicNeo-Regular-20" x="702.499817"/>
     <use xlink:href="#AppleSDGothicNeo-Regular-73" x="728.799805"/>
     <use xlink:href="#AppleSDGothicNeo-Regular-79" x="770.299789"/>
     <use xlink:href="#AppleSDGothicNeo-Regular-6d" x="818.499786"/>
     <use xlink:href="#AppleSDGothicNeo-Regular-6d" x="898.799774"/>
     <use xlink:href="#AppleSDGothicNeo-Regular-65" x="979.099762"/>
     <use xlink:href="#AppleSDGothicNeo-Regular-74" x="1029.099747"/>
     <use xlink:href="#AppleSDGothicNeo-Regular-72" x="1064.099731"/>
     <use xlink:href="#AppleSDGothicNeo-Regular-69" x="1098.699722"/>
     <use xlink:href="#AppleSDGothicNeo-Regular-63" x="1121.399719"/>
     <use xlink:href="#AppleSDGothicNeo-Regular-20" x="1166.399704"/>
     <use xlink:href="#AppleSDGothicNeo-Regular-65" x="1192.699692"/>
     <use xlink:href="#AppleSDGothicNeo-Regular-78" x="1242.699677"/>
     <use xlink:href="#AppleSDGothicNeo-Regular-63" x="1290.399673"/>
     <use xlink:href="#AppleSDGothicNeo-Regular-6c" x="1335.399658"/>
     <use xlink:href="#AppleSDGothicNeo-Regular-75" x="1358.099655"/>
     <use xlink:href="#AppleSDGothicNeo-Regular-73" x="1411.09964"/>
     <use xlink:href="#AppleSDGothicNeo-Regular-69" x="1452.599625"/>
     <use xlink:href="#AppleSDGothicNeo-Regular-6f" x="1475.299622"/>
     <use xlink:href="#AppleSDGothicNeo-Regular-6e" x="1528.699615"/>
     <use xlink:href="#AppleSDGothicNeo-Regular-73" x="1582.299606"/>
    </g>
   </g>
   <g id="patch_5">
    <path d="M 488.448 118.842107 
Q 488.448 105.391645 488.448 91.941183 
" style="fill: none; stroke: #a84a3a; stroke-width: 1.3; stroke-linecap: round"/>
   </g>
   <g id="text_16">
    <!-- -6  unresolved infrastructure-invalid -->
    <g style="fill: #a84a3a" transform="translate(396.774563 131.940813) scale(0.12 -0.12)">
     <defs>
      <path id="AppleSDGothicNeo-Regular-66" d="M 653 269 
L 1146 269 
L 1146 3034 
L 1875 3034 
L 1875 3437 
L 1146 3437 
L 1146 3866 
C 1146 4307 1357 4486 1734 4486 
C 1952 4486 2086 4461 2182 4442 
L 2182 4787 
C 2067 4845 1894 4896 1645 4896 
C 1069 4896 653 4595 653 3898 
L 653 3437 
L 186 3437 
L 186 3034 
L 653 3034 
L 653 269 
z
" transform="scale(0.015625)"/>
     </defs>
     <use xlink:href="#AppleSDGothicNeo-Regular-2d"/>
     <use xlink:href="#AppleSDGothicNeo-Regular-36" x="43.199997"/>
     <use xlink:href="#AppleSDGothicNeo-Regular-20" x="98.599991"/>
     <use xlink:href="#AppleSDGothicNeo-Regular-20" x="124.899979"/>
     <use xlink:href="#AppleSDGothicNeo-Regular-75" x="151.199966"/>
     <use xlink:href="#AppleSDGothicNeo-Regular-6e" x="204.199951"/>
     <use xlink:href="#AppleSDGothicNeo-Regular-72" x="257.799942"/>
     <use xlink:href="#AppleSDGothicNeo-Regular-65" x="292.399933"/>
     <use xlink:href="#AppleSDGothicNeo-Regular-73" x="342.399918"/>
     <use xlink:href="#AppleSDGothicNeo-Regular-6f" x="383.899902"/>
     <use xlink:href="#AppleSDGothicNeo-Regular-6c" x="437.299896"/>
     <use xlink:href="#AppleSDGothicNeo-Regular-76" x="459.999893"/>
     <use xlink:href="#AppleSDGothicNeo-Regular-65" x="509.19989"/>
     <use xlink:href="#AppleSDGothicNeo-Regular-64" x="559.199875"/>
     <use xlink:href="#AppleSDGothicNeo-Regular-20" x="613.69986"/>
     <use xlink:href="#AppleSDGothicNeo-Regular-69" x="639.999847"/>
     <use xlink:href="#AppleSDGothicNeo-Regular-6e" x="662.699844"/>
     <use xlink:href="#AppleSDGothicNeo-Regular-66" x="716.299835"/>
     <use xlink:href="#AppleSDGothicNeo-Regular-72" x="748.599823"/>
     <use xlink:href="#AppleSDGothicNeo-Regular-61" x="783.199814"/>
     <use xlink:href="#AppleSDGothicNeo-Regular-73" x="830.399811"/>
     <use xlink:href="#AppleSDGothicNeo-Regular-74" x="871.899796"/>
     <use xlink:href="#AppleSDGothicNeo-Regular-72" x="906.89978"/>
     <use xlink:href="#AppleSDGothicNeo-Regular-75" x="941.499771"/>
     <use xlink:href="#AppleSDGothicNeo-Regular-63" x="994.499756"/>
     <use xlink:href="#AppleSDGothicNeo-Regular-74" x="1039.499741"/>
     <use xlink:href="#AppleSDGothicNeo-Regular-75" x="1074.499725"/>
     <use xlink:href="#AppleSDGothicNeo-Regular-72" x="1127.49971"/>
     <use xlink:href="#AppleSDGothicNeo-Regular-65" x="1162.099701"/>
     <use xlink:href="#AppleSDGothicNeo-Regular-2d" x="1212.099686"/>
     <use xlink:href="#AppleSDGothicNeo-Regular-69" x="1255.299683"/>
     <use xlink:href="#AppleSDGothicNeo-Regular-6e" x="1277.99968"/>
     <use xlink:href="#AppleSDGothicNeo-Regular-76" x="1331.59967"/>
     <use xlink:href="#AppleSDGothicNeo-Regular-61" x="1380.799667"/>
     <use xlink:href="#AppleSDGothicNeo-Regular-6c" x="1427.999664"/>
     <use xlink:href="#AppleSDGothicNeo-Regular-69" x="1450.699661"/>
     <use xlink:href="#AppleSDGothicNeo-Regular-64" x="1473.399658"/>
    </g>
   </g>
   <g id="patch_6">
    <path d="M 734.208 154.523955 
Q 734.208 141.073493 734.208 127.623032 
" style="fill: none; stroke: #777777; stroke-width: 1.3; stroke-linecap: round"/>
   </g>
   <g id="text_17">
    <!-- -189  protocol-valid zeroes -->
    <g style="fill: #777777" transform="translate(665.998313 167.622661) scale(0.12 -0.12)">
     <defs>
      <path id="AppleSDGothicNeo-Regular-31" d="M 1146 243 
L 1632 243 
L 1632 4634 
L 1363 4634 
L 352 4160 
L 352 3866 
L 1146 4051 
L 1146 243 
z
" transform="scale(0.015625)"/>
      <path id="AppleSDGothicNeo-Regular-7a" d="M 262 269 
L 2605 269 
L 2605 672 
L 858 672 
L 858 685 
L 2611 3091 
L 2611 3443 
L 358 3443 
L 358 3046 
L 2016 3046 
L 2016 3027 
L 262 640 
L 262 269 
z
" transform="scale(0.015625)"/>
     </defs>
     <use xlink:href="#AppleSDGothicNeo-Regular-2d"/>
     <use xlink:href="#AppleSDGothicNeo-Regular-31" x="43.199997"/>
     <use xlink:href="#AppleSDGothicNeo-Regular-38" x="78.899994"/>
     <use xlink:href="#AppleSDGothicNeo-Regular-39" x="136.399979"/>
     <use xlink:href="#AppleSDGothicNeo-Regular-20" x="191.799973"/>
     <use xlink:href="#AppleSDGothicNeo-Regular-20" x="218.09996"/>
     <use xlink:href="#AppleSDGothicNeo-Regular-70" x="244.399948"/>
     <use xlink:href="#AppleSDGothicNeo-Regular-72" x="298.899933"/>
     <use xlink:href="#AppleSDGothicNeo-Regular-6f" x="333.499924"/>
     <use xlink:href="#AppleSDGothicNeo-Regular-74" x="386.899918"/>
     <use xlink:href="#AppleSDGothicNeo-Regular-6f" x="421.899902"/>
     <use xlink:href="#AppleSDGothicNeo-Regular-63" x="475.299896"/>
     <use xlink:href="#AppleSDGothicNeo-Regular-6f" x="520.299881"/>
     <use xlink:href="#AppleSDGothicNeo-Regular-6c" x="573.699875"/>
     <use xlink:href="#AppleSDGothicNeo-Regular-2d" x="596.399872"/>
     <use xlink:href="#AppleSDGothicNeo-Regular-76" x="639.599869"/>
     <use xlink:href="#AppleSDGothicNeo-Regular-61" x="688.799866"/>
     <use xlink:href="#AppleSDGothicNeo-Regular-6c" x="735.999863"/>
     <use xlink:href="#AppleSDGothicNeo-Regular-69" x="758.69986"/>
     <use xlink:href="#AppleSDGothicNeo-Regular-64" x="781.399857"/>
     <use xlink:href="#AppleSDGothicNeo-Regular-20" x="835.899841"/>
     <use xlink:href="#AppleSDGothicNeo-Regular-7a" x="862.199829"/>
     <use xlink:href="#AppleSDGothicNeo-Regular-65" x="907.29982"/>
     <use xlink:href="#AppleSDGothicNeo-Regular-72" x="957.299805"/>
     <use xlink:href="#AppleSDGothicNeo-Regular-6f" x="991.899796"/>
     <use xlink:href="#AppleSDGothicNeo-Regular-65" x="1045.299789"/>
     <use xlink:href="#AppleSDGothicNeo-Regular-73" x="1095.299774"/>
    </g>
   </g>
   <g id="text_18">
    <!-- Source: native-results.json + outcomes.json · derived view · score authority: Harbor verifier receipts -->
    <g style="fill: #777777" transform="translate(82.944 372.093696) scale(0.095 -0.095)">
     <defs>
      <path id="AppleSDGothicNeo-Regular-53" d="M 1472 192 
C 2477 192 2912 691 2912 1440 
C 2912 2163 2509 2432 1875 2650 
L 1453 2784 
C 966 2950 813 3130 813 3539 
C 813 3949 1107 4205 1632 4205 
C 2106 4205 2445 4083 2694 3968 
L 2694 4397 
C 2458 4512 2157 4634 1651 4634 
C 755 4634 314 4160 314 3494 
C 314 2842 653 2534 1254 2336 
L 1670 2189 
C 2189 2022 2400 1843 2400 1402 
C 2400 934 2112 627 1453 627 
C 998 627 576 742 250 909 
L 250 480 
C 538 320 947 192 1472 192 
z
" transform="scale(0.015625)"/>
      <path id="AppleSDGothicNeo-Regular-3a" d="M 640 3014 
L 1190 3014 
L 1190 3590 
L 640 3590 
L 640 3014 
z
M 640 659 
L 1190 659 
L 1190 1242 
L 640 1242 
L 640 659 
z
" transform="scale(0.015625)"/>
      <path id="AppleSDGothicNeo-Regular-2e" d="M 269 109 
L 826 109 
L 826 678 
L 269 678 
L 269 109 
z
" transform="scale(0.015625)"/>
      <path id="AppleSDGothicNeo-Regular-6a" d="M 122 -678 
C 723 -678 973 -326 973 179 
L 973 3443 
L 486 3443 
L 486 211 
C 486 -134 307 -275 -6 -275 
C -115 -275 -237 -256 -346 -230 
L -346 -582 
C -224 -640 -90 -678 122 -678 
z
M 480 4083 
L 979 4083 
L 979 4595 
L 480 4595 
L 480 4083 
z
" transform="scale(0.015625)"/>
      <path id="AppleSDGothicNeo-Regular-2b" d="M 1562 883 
L 2016 883 
L 2016 2125 
L 3206 2125 
L 3206 2554 
L 2016 2554 
L 2016 3808 
L 1562 3808 
L 1562 2554 
L 346 2554 
L 346 2125 
L 1562 2125 
L 1562 883 
z
" transform="scale(0.015625)"/>
      <path id="AppleSDGothicNeo-Regular-b7" d="M 640 2131 
L 1267 2131 
L 1267 2784 
L 640 2784 
L 640 2131 
z
" transform="scale(0.015625)"/>
      <path id="AppleSDGothicNeo-Regular-77" d="M 1082 269 
L 1581 269 
L 2330 2688 
L 2349 2688 
L 3085 269 
L 3578 269 
L 4480 3443 
L 4013 3443 
L 3360 902 
L 3334 902 
L 2566 3443 
L 2144 3443 
L 1382 902 
L 1357 902 
L 704 3443 
L 179 3443 
L 1082 269 
z
" transform="scale(0.015625)"/>
      <path id="AppleSDGothicNeo-Regular-68" d="M 467 269 
L 954 269 
L 954 2842 
C 1216 2970 1549 3078 1850 3078 
C 2355 3078 2490 2918 2490 2534 
L 2490 269 
L 2976 269 
L 2976 2630 
C 2976 3245 2675 3501 2054 3501 
C 1664 3501 1261 3366 986 3168 
L 954 3168 
L 954 4851 
L 467 4851 
L 467 269 
z
" transform="scale(0.015625)"/>
      <path id="AppleSDGothicNeo-Regular-48" d="M 550 269 
L 1062 269 
L 1062 2272 
L 3213 2272 
L 3213 269 
L 3718 269 
L 3718 4563 
L 3213 4563 
L 3213 2701 
L 1062 2701 
L 1062 4563 
L 550 4563 
L 550 269 
z
" transform="scale(0.015625)"/>
      <path id="AppleSDGothicNeo-Regular-62" d="M 1626 198 
C 2650 198 3206 800 3206 1862 
L 3206 1946 
C 3206 3136 2579 3501 1971 3501 
C 1536 3501 1235 3379 992 3232 
L 960 3232 
L 960 4851 
L 467 4851 
L 467 371 
C 749 262 1254 198 1626 198 
z
M 1651 608 
C 1331 608 1107 659 960 723 
L 960 2880 
C 1126 2957 1421 3085 1747 3085 
C 2387 3085 2694 2797 2694 1914 
L 2694 1786 
C 2694 877 2221 608 1651 608 
z
" transform="scale(0.015625)"/>
     </defs>
     <use xlink:href="#AppleSDGothicNeo-Regular-53"/>
     <use xlink:href="#AppleSDGothicNeo-Regular-6f" x="50.399994"/>
     <use xlink:href="#AppleSDGothicNeo-Regular-75" x="103.799988"/>
     <use xlink:href="#AppleSDGothicNeo-Regular-72" x="156.799973"/>
     <use xlink:href="#AppleSDGothicNeo-Regular-63" x="191.399963"/>
     <use xlink:href="#AppleSDGothicNeo-Regular-65" x="236.399948"/>
     <use xlink:href="#AppleSDGothicNeo-Regular-3a" x="286.399933"/>
     <use xlink:href="#AppleSDGothicNeo-Regular-20" x="314.799927"/>
     <use xlink:href="#AppleSDGothicNeo-Regular-6e" x="341.099915"/>
     <use xlink:href="#AppleSDGothicNeo-Regular-61" x="394.699905"/>
     <use xlink:href="#AppleSDGothicNeo-Regular-74" x="441.899902"/>
     <use xlink:href="#AppleSDGothicNeo-Regular-69" x="476.899887"/>
     <use xlink:href="#AppleSDGothicNeo-Regular-76" x="499.599884"/>
     <use xlink:href="#AppleSDGothicNeo-Regular-65" x="548.799881"/>
     <use xlink:href="#AppleSDGothicNeo-Regular-2d" x="598.799866"/>
     <use xlink:href="#AppleSDGothicNeo-Regular-72" x="641.999863"/>
     <use xlink:href="#AppleSDGothicNeo-Regular-65" x="676.599854"/>
     <use xlink:href="#AppleSDGothicNeo-Regular-73" x="726.599838"/>
     <use xlink:href="#AppleSDGothicNeo-Regular-75" x="768.099823"/>
     <use xlink:href="#AppleSDGothicNeo-Regular-6c" x="821.099808"/>
     <use xlink:href="#AppleSDGothicNeo-Regular-74" x="843.799805"/>
     <use xlink:href="#AppleSDGothicNeo-Regular-73" x="878.799789"/>
     <use xlink:href="#AppleSDGothicNeo-Regular-2e" x="920.299774"/>
     <use xlink:href="#AppleSDGothicNeo-Regular-6a" x="942.899765"/>
     <use xlink:href="#AppleSDGothicNeo-Regular-73" x="965.599762"/>
     <use xlink:href="#AppleSDGothicNeo-Regular-6f" x="1007.099747"/>
     <use xlink:href="#AppleSDGothicNeo-Regular-6e" x="1060.499741"/>
     <use xlink:href="#AppleSDGothicNeo-Regular-20" x="1114.099731"/>
     <use xlink:href="#AppleSDGothicNeo-Regular-2b" x="1140.399719"/>
     <use xlink:href="#AppleSDGothicNeo-Regular-20" x="1194.699707"/>
     <use xlink:href="#AppleSDGothicNeo-Regular-6f" x="1220.999695"/>
     <use xlink:href="#AppleSDGothicNeo-Regular-75" x="1274.399689"/>
     <use xlink:href="#AppleSDGothicNeo-Regular-74" x="1327.399673"/>
     <use xlink:href="#AppleSDGothicNeo-Regular-63" x="1362.399658"/>
     <use xlink:href="#AppleSDGothicNeo-Regular-6f" x="1407.399643"/>
     <use xlink:href="#AppleSDGothicNeo-Regular-6d" x="1460.799637"/>
     <use xlink:href="#AppleSDGothicNeo-Regular-65" x="1541.099625"/>
     <use xlink:href="#AppleSDGothicNeo-Regular-73" x="1591.099609"/>
     <use xlink:href="#AppleSDGothicNeo-Regular-2e" x="1632.599594"/>
     <use xlink:href="#AppleSDGothicNeo-Regular-6a" x="1655.199585"/>
     <use xlink:href="#AppleSDGothicNeo-Regular-73" x="1677.899582"/>
     <use xlink:href="#AppleSDGothicNeo-Regular-6f" x="1719.399567"/>
     <use xlink:href="#AppleSDGothicNeo-Regular-6e" x="1772.799561"/>
     <use xlink:href="#AppleSDGothicNeo-Regular-20" x="1826.399551"/>
     <use xlink:href="#AppleSDGothicNeo-Regular-b7" x="1852.699539"/>
     <use xlink:href="#AppleSDGothicNeo-Regular-20" x="1882.999527"/>
     <use xlink:href="#AppleSDGothicNeo-Regular-64" x="1909.299515"/>
     <use xlink:href="#AppleSDGothicNeo-Regular-65" x="1963.7995"/>
     <use xlink:href="#AppleSDGothicNeo-Regular-72" x="2013.799484"/>
     <use xlink:href="#AppleSDGothicNeo-Regular-69" x="2048.399475"/>
     <use xlink:href="#AppleSDGothicNeo-Regular-76" x="2071.099472"/>
     <use xlink:href="#AppleSDGothicNeo-Regular-65" x="2120.299469"/>
     <use xlink:href="#AppleSDGothicNeo-Regular-64" x="2170.299454"/>
     <use xlink:href="#AppleSDGothicNeo-Regular-20" x="2224.799438"/>
     <use xlink:href="#AppleSDGothicNeo-Regular-76" x="2251.099426"/>
     <use xlink:href="#AppleSDGothicNeo-Regular-69" x="2300.299423"/>
     <use xlink:href="#AppleSDGothicNeo-Regular-65" x="2322.99942"/>
     <use xlink:href="#AppleSDGothicNeo-Regular-77" x="2372.999405"/>
     <use xlink:href="#AppleSDGothicNeo-Regular-20" x="2445.799393"/>
     <use xlink:href="#AppleSDGothicNeo-Regular-b7" x="2472.09938"/>
     <use xlink:href="#AppleSDGothicNeo-Regular-20" x="2502.399368"/>
     <use xlink:href="#AppleSDGothicNeo-Regular-73" x="2528.699356"/>
     <use xlink:href="#AppleSDGothicNeo-Regular-63" x="2570.199341"/>
     <use xlink:href="#AppleSDGothicNeo-Regular-6f" x="2615.199326"/>
     <use xlink:href="#AppleSDGothicNeo-Regular-72" x="2668.599319"/>
     <use xlink:href="#AppleSDGothicNeo-Regular-65" x="2703.19931"/>
     <use xlink:href="#AppleSDGothicNeo-Regular-20" x="2753.199295"/>
     <use xlink:href="#AppleSDGothicNeo-Regular-61" x="2779.499283"/>
     <use xlink:href="#AppleSDGothicNeo-Regular-75" x="2826.69928"/>
     <use xlink:href="#AppleSDGothicNeo-Regular-74" x="2879.699265"/>
     <use xlink:href="#AppleSDGothicNeo-Regular-68" x="2914.699249"/>
     <use xlink:href="#AppleSDGothicNeo-Regular-6f" x="2968.29924"/>
     <use xlink:href="#AppleSDGothicNeo-Regular-72" x="3021.699234"/>
     <use xlink:href="#AppleSDGothicNeo-Regular-69" x="3056.299225"/>
     <use xlink:href="#AppleSDGothicNeo-Regular-74" x="3078.999222"/>
     <use xlink:href="#AppleSDGothicNeo-Regular-79" x="3113.999207"/>
     <use xlink:href="#AppleSDGothicNeo-Regular-3a" x="3162.199203"/>
     <use xlink:href="#AppleSDGothicNeo-Regular-20" x="3190.599197"/>
     <use xlink:href="#AppleSDGothicNeo-Regular-48" x="3216.899185"/>
     <use xlink:href="#AppleSDGothicNeo-Regular-61" x="3283.699173"/>
     <use xlink:href="#AppleSDGothicNeo-Regular-72" x="3330.89917"/>
     <use xlink:href="#AppleSDGothicNeo-Regular-62" x="3365.499161"/>
     <use xlink:href="#AppleSDGothicNeo-Regular-6f" x="3419.999146"/>
     <use xlink:href="#AppleSDGothicNeo-Regular-72" x="3473.399139"/>
     <use xlink:href="#AppleSDGothicNeo-Regular-20" x="3507.99913"/>
     <use xlink:href="#AppleSDGothicNeo-Regular-76" x="3534.299118"/>
     <use xlink:href="#AppleSDGothicNeo-Regular-65" x="3583.499115"/>
     <use xlink:href="#AppleSDGothicNeo-Regular-72" x="3633.4991"/>
     <use xlink:href="#AppleSDGothicNeo-Regular-69" x="3668.099091"/>
     <use xlink:href="#AppleSDGothicNeo-Regular-66" x="3690.799088"/>
     <use xlink:href="#AppleSDGothicNeo-Regular-69" x="3723.099075"/>
     <use xlink:href="#AppleSDGothicNeo-Regular-65" x="3745.799072"/>
     <use xlink:href="#AppleSDGothicNeo-Regular-72" x="3795.799057"/>
     <use xlink:href="#AppleSDGothicNeo-Regular-20" x="3830.399048"/>
     <use xlink:href="#AppleSDGothicNeo-Regular-72" x="3856.699036"/>
     <use xlink:href="#AppleSDGothicNeo-Regular-65" x="3891.299026"/>
     <use xlink:href="#AppleSDGothicNeo-Regular-63" x="3941.299011"/>
     <use xlink:href="#AppleSDGothicNeo-Regular-65" x="3986.298996"/>
     <use xlink:href="#AppleSDGothicNeo-Regular-69" x="4036.298981"/>
     <use xlink:href="#AppleSDGothicNeo-Regular-70" x="4058.998978"/>
     <use xlink:href="#AppleSDGothicNeo-Regular-74" x="4113.498962"/>
     <use xlink:href="#AppleSDGothicNeo-Regular-73" x="4148.498947"/>
    </g>
   </g>
   <g id="text_19">
    <!-- Each state is separated without silently changing the denominator -->
    <g style="fill: #171717" transform="translate(82.944 35.7264) scale(0.18 -0.18)">
     <defs>
      <path id="AppleSDGothicNeo-Regular-67" d="M 1574 -672 
C 2656 -672 3091 -243 3091 301 
C 3091 890 2662 1062 2086 1062 
L 1210 1062 
C 998 1062 896 1126 896 1299 
C 896 1402 960 1478 1043 1555 
C 1210 1498 1389 1466 1587 1466 
C 2253 1466 2778 1805 2778 2483 
L 2778 2490 
C 2778 2739 2694 2931 2547 3072 
L 3117 3072 
L 3117 3450 
L 2042 3450 
C 1901 3482 1754 3501 1594 3501 
C 896 3501 397 3136 397 2477 
L 397 2464 
C 397 2086 550 1830 794 1670 
C 550 1491 435 1344 435 1146 
C 435 934 576 800 755 749 
L 755 717 
C 429 608 154 410 154 70 
C 154 -390 608 -672 1574 -672 
z
M 1562 -288 
C 934 -288 666 -147 666 134 
C 666 403 851 544 1094 627 
L 2010 627 
C 2426 627 2579 531 2579 237 
C 2579 -96 2310 -288 1562 -288 
z
M 1587 1850 
C 1165 1850 883 2054 883 2470 
L 883 2502 
C 883 2899 1152 3130 1587 3130 
C 2016 3130 2285 2931 2285 2496 
L 2285 2464 
C 2285 2054 2029 1850 1587 1850 
z
" transform="scale(0.015625)"/>
     </defs>
     <use xlink:href="#AppleSDGothicNeo-Regular-45"/>
     <use xlink:href="#AppleSDGothicNeo-Regular-61" x="54.999985"/>
     <use xlink:href="#AppleSDGothicNeo-Regular-63" x="102.199982"/>
     <use xlink:href="#AppleSDGothicNeo-Regular-68" x="147.199966"/>
     <use xlink:href="#AppleSDGothicNeo-Regular-20" x="200.799957"/>
     <use xlink:href="#AppleSDGothicNeo-Regular-73" x="227.099945"/>
     <use xlink:href="#AppleSDGothicNeo-Regular-74" x="268.59993"/>
     <use xlink:href="#AppleSDGothicNeo-Regular-61" x="303.599915"/>
     <use xlink:href="#AppleSDGothicNeo-Regular-74" x="350.799911"/>
     <use xlink:href="#AppleSDGothicNeo-Regular-65" x="385.799896"/>
     <use xlink:href="#AppleSDGothicNeo-Regular-20" x="435.799881"/>
     <use xlink:href="#AppleSDGothicNeo-Regular-69" x="462.099869"/>
     <use xlink:href="#AppleSDGothicNeo-Regular-73" x="484.799866"/>
     <use xlink:href="#AppleSDGothicNeo-Regular-20" x="526.29985"/>
     <use xlink:href="#AppleSDGothicNeo-Regular-73" x="552.599838"/>
     <use xlink:href="#AppleSDGothicNeo-Regular-65" x="594.099823"/>
     <use xlink:href="#AppleSDGothicNeo-Regular-70" x="644.099808"/>
     <use xlink:href="#AppleSDGothicNeo-Regular-61" x="698.599792"/>
     <use xlink:href="#AppleSDGothicNeo-Regular-72" x="745.799789"/>
     <use xlink:href="#AppleSDGothicNeo-Regular-61" x="780.39978"/>
     <use xlink:href="#AppleSDGothicNeo-Regular-74" x="827.599777"/>
     <use xlink:href="#AppleSDGothicNeo-Regular-65" x="862.599762"/>
     <use xlink:href="#AppleSDGothicNeo-Regular-64" x="912.599747"/>
     <use xlink:href="#AppleSDGothicNeo-Regular-20" x="967.099731"/>
     <use xlink:href="#AppleSDGothicNeo-Regular-77" x="993.399719"/>
     <use xlink:href="#AppleSDGothicNeo-Regular-69" x="1066.199707"/>
     <use xlink:href="#AppleSDGothicNeo-Regular-74" x="1088.899704"/>
     <use xlink:href="#AppleSDGothicNeo-Regular-68" x="1123.899689"/>
     <use xlink:href="#AppleSDGothicNeo-Regular-6f" x="1177.49968"/>
     <use xlink:href="#AppleSDGothicNeo-Regular-75" x="1230.899673"/>
     <use xlink:href="#AppleSDGothicNeo-Regular-74" x="1283.899658"/>
     <use xlink:href="#AppleSDGothicNeo-Regular-20" x="1318.899643"/>
     <use xlink:href="#AppleSDGothicNeo-Regular-73" x="1345.199631"/>
     <use xlink:href="#AppleSDGothicNeo-Regular-69" x="1386.699615"/>
     <use xlink:href="#AppleSDGothicNeo-Regular-6c" x="1409.399612"/>
     <use xlink:href="#AppleSDGothicNeo-Regular-65" x="1432.099609"/>
     <use xlink:href="#AppleSDGothicNeo-Regular-6e" x="1482.099594"/>
     <use xlink:href="#AppleSDGothicNeo-Regular-74" x="1535.699585"/>
     <use xlink:href="#AppleSDGothicNeo-Regular-6c" x="1570.69957"/>
     <use xlink:href="#AppleSDGothicNeo-Regular-79" x="1593.399567"/>
     <use xlink:href="#AppleSDGothicNeo-Regular-20" x="1641.599564"/>
     <use xlink:href="#AppleSDGothicNeo-Regular-63" x="1667.899551"/>
     <use xlink:href="#AppleSDGothicNeo-Regular-68" x="1712.899536"/>
     <use xlink:href="#AppleSDGothicNeo-Regular-61" x="1766.499527"/>
     <use xlink:href="#AppleSDGothicNeo-Regular-6e" x="1813.699524"/>
     <use xlink:href="#AppleSDGothicNeo-Regular-67" x="1867.299515"/>
     <use xlink:href="#AppleSDGothicNeo-Regular-69" x="1917.899506"/>
     <use xlink:href="#AppleSDGothicNeo-Regular-6e" x="1940.599503"/>
     <use xlink:href="#AppleSDGothicNeo-Regular-67" x="1994.199493"/>
     <use xlink:href="#AppleSDGothicNeo-Regular-20" x="2044.799484"/>
     <use xlink:href="#AppleSDGothicNeo-Regular-74" x="2071.099472"/>
     <use xlink:href="#AppleSDGothicNeo-Regular-68" x="2106.099457"/>
     <use xlink:href="#AppleSDGothicNeo-Regular-65" x="2159.699448"/>
     <use xlink:href="#AppleSDGothicNeo-Regular-20" x="2209.699432"/>
     <use xlink:href="#AppleSDGothicNeo-Regular-64" x="2235.99942"/>
     <use xlink:href="#AppleSDGothicNeo-Regular-65" x="2290.499405"/>
     <use xlink:href="#AppleSDGothicNeo-Regular-6e" x="2340.49939"/>
     <use xlink:href="#AppleSDGothicNeo-Regular-6f" x="2394.09938"/>
     <use xlink:href="#AppleSDGothicNeo-Regular-6d" x="2447.499374"/>
     <use xlink:href="#AppleSDGothicNeo-Regular-69" x="2527.799362"/>
     <use xlink:href="#AppleSDGothicNeo-Regular-6e" x="2550.499359"/>
     <use xlink:href="#AppleSDGothicNeo-Regular-61" x="2604.09935"/>
     <use xlink:href="#AppleSDGothicNeo-Regular-74" x="2651.299347"/>
     <use xlink:href="#AppleSDGothicNeo-Regular-6f" x="2686.299332"/>
     <use xlink:href="#AppleSDGothicNeo-Regular-72" x="2739.699326"/>
    </g>
   </g>
  </g>
 </g>
 <defs>
  <clipPath id="p87d51688e2">
   <rect x="82.944" y="53.7264" width="811.008" height="260.9568"/>
  </clipPath>
 </defs>
</svg>
